<svg xmlns="http://www.w3.org/2000/svg" xmlns:xlink="http://www.w3.org/1999/xlink" width="1080" zoomAndPan="magnify" viewBox="0 0 810 809.999993" height="1080" preserveAspectRatio="xMidYMid meet" version="1.0"><defs><clipPath id="7cee930ace"><path d="M 125.042969 0 L 685 0 L 685 810 L 125.042969 810 Z M 125.042969 0 " clip-rule="nonzero"/></clipPath></defs><g clip-path="url(#7cee930ace)"><path fill="#ffffff" d="M 518.554688 578.839844 C 473.585938 654.867188 428.175781 722.875 405.003906 756.792969 C 381.832031 722.875 336.417969 654.867188 291.449219 578.839844 C 208.230469 438.148438 164.242188 334.574219 164.242188 279.328125 C 164.242188 146.582031 272.246094 38.585938 405.003906 38.585938 C 537.757812 38.585938 645.757812 146.582031 645.757812 279.328125 C 645.757812 334.574219 601.765625 438.148438 518.554688 578.839844 Z M 405.003906 0.0117188 C 250.976562 0.0117188 125.667969 125.3125 125.667969 279.328125 C 125.667969 342.398438 170.324219 449.847656 258.382812 598.699219 C 323.046875 707.996094 388.601562 800.910156 389.261719 801.839844 C 392.871094 806.949219 398.746094 809.988281 405.003906 809.988281 C 411.265625 809.988281 417.132812 806.949219 420.75 801.839844 C 421.402344 800.910156 486.964844 707.996094 551.621094 598.699219 C 639.679688 449.847656 684.328125 342.398438 684.328125 279.328125 C 684.328125 125.3125 559.019531 0.0117188 405.003906 0.0117188 " fill-opacity="1" fill-rule="nonzero"/></g><path fill="#ffffff" d="M 405.003906 362.863281 C 358.964844 362.863281 321.503906 325.390625 321.503906 279.328125 C 321.503906 233.285156 358.964844 195.828125 405.003906 195.828125 C 451.046875 195.828125 488.515625 233.285156 488.515625 279.328125 C 488.515625 325.390625 451.046875 362.863281 405.003906 362.863281 Z M 405.003906 157.253906 C 337.695312 157.253906 282.929688 212.015625 282.929688 279.328125 C 282.929688 346.660156 337.695312 401.433594 405.003906 401.433594 C 472.316406 401.433594 527.085938 346.660156 527.085938 279.328125 C 527.085938 212.015625 472.316406 157.253906 405.003906 157.253906 " fill-opacity="1" fill-rule="nonzero"/></svg>