<svg xmlns="http://www.w3.org/2000/svg" xmlns:xlink="http://www.w3.org/1999/xlink" width="1080" zoomAndPan="magnify" viewBox="0 0 810 809.999993" height="1080" preserveAspectRatio="xMidYMid meet" version="1.0"><defs><clipPath id="7f54212e0c"><path d="M 0 126.054688 L 810 126.054688 L 810 684.054688 L 0 684.054688 Z M 0 126.054688 " clip-rule="nonzero"/></clipPath></defs><g clip-path="url(#7f54212e0c)"><path fill="#ffffff" d="M 789.160156 158.859375 C 788.742188 158.3125 788.300781 157.78125 787.800781 157.28125 C 787.789062 157.269531 787.777344 157.261719 787.769531 157.253906 C 771.191406 138.222656 746.8125 126.160156 719.65625 126.160156 L 90.34375 126.160156 C 63.160156 126.160156 38.765625 138.242188 22.191406 157.296875 C 21.714844 157.773438 21.289062 158.285156 20.886719 158.804688 C 7.855469 174.464844 0.00390625 194.585938 0.00390625 216.503906 L 0.00390625 593.695312 C 0.00390625 643.511719 40.527344 684.039062 90.34375 684.039062 L 719.660156 684.039062 C 769.476562 684.039062 810.003906 643.511719 810.003906 593.695312 L 810.003906 216.503906 C 810 194.609375 802.164062 174.515625 789.160156 158.859375 Z M 778.765625 216.503906 L 778.765625 593.695312 C 778.765625 600.765625 777.515625 607.542969 775.230469 613.832031 L 562.472656 404.695312 L 773.96875 193.199219 C 777.050781 200.355469 778.765625 208.230469 778.765625 216.503906 Z M 90.34375 652.804688 C 76.25 652.804688 63.300781 647.839844 53.132812 639.578125 L 269.617188 426.78125 L 352.78125 509.949219 C 366.726562 523.898438 385.273438 531.578125 405 531.578125 C 424.726562 531.578125 443.273438 523.898438 457.21875 509.949219 L 540.382812 426.78125 L 756.867188 639.578125 C 746.699219 647.839844 733.746094 652.804688 719.65625 652.804688 Z M 31.234375 593.695312 L 31.234375 216.503906 C 31.234375 208.230469 32.949219 200.355469 36.03125 193.199219 L 247.527344 404.695312 L 34.769531 613.832031 C 32.484375 607.542969 31.234375 600.765625 31.234375 593.695312 Z M 719.65625 157.398438 C 732.601562 157.398438 744.578125 161.589844 754.320312 168.671875 L 435.128906 487.863281 C 427.082031 495.914062 416.382812 500.34375 404.996094 500.34375 C 393.613281 500.34375 382.914062 495.914062 374.867188 487.863281 L 55.675781 168.671875 C 65.421875 161.589844 77.398438 157.398438 90.339844 157.398438 Z M 719.65625 157.398438 " fill-opacity="1" fill-rule="nonzero"/></g></svg>