<svg xmlns="http://www.w3.org/2000/svg" xmlns:xlink="http://www.w3.org/1999/xlink" width="1080" zoomAndPan="magnify" viewBox="0 0 810 809.999993" height="1080" preserveAspectRatio="xMidYMid meet" version="1.0"><path fill="#ffffff" d="M 354.894531 46.28125 C 183.152344 65.3125 43.207031 203.863281 22.480469 375.304688 C 21.8125 380.6875 21.257812 386.082031 20.820312 391.488281 C 20.378906 396.894531 20.058594 402.304688 19.851562 407.726562 C 19.644531 413.144531 19.554688 418.566406 19.578125 423.992188 C 19.605469 429.414062 19.746094 434.835938 20.003906 440.253906 C 20.261719 445.671875 20.636719 451.078125 21.125 456.480469 C 21.617188 461.882812 22.222656 467.269531 22.941406 472.648438 C 23.664062 478.023438 24.5 483.378906 25.449219 488.71875 C 26.398438 494.058594 27.464844 499.375 28.640625 504.671875 C 29.820312 509.964844 31.113281 515.230469 32.515625 520.46875 C 33.917969 525.707031 35.433594 530.914062 37.0625 536.089844 C 38.691406 541.261719 40.425781 546.398438 42.273438 551.5 C 44.121094 556.597656 46.078125 561.65625 48.140625 566.671875 C 50.207031 571.6875 52.378906 576.65625 54.65625 581.578125 C 56.933594 586.5 59.3125 591.371094 61.800781 596.191406 C 64.285156 601.011719 66.875 605.777344 69.5625 610.488281 C 72.253906 615.199219 75.042969 619.847656 77.933594 624.4375 C 80.824219 629.027344 83.808594 633.554688 86.894531 638.015625 C 89.976562 642.476562 93.15625 646.871094 96.425781 651.199219 C 99.699219 655.523438 103.0625 659.777344 106.515625 663.960938 C 109.972656 668.140625 113.515625 672.246094 117.144531 676.277344 C 120.773438 680.308594 124.488281 684.257812 128.289062 688.128906 C 132.089844 692 135.96875 695.789062 139.929688 699.492188 C 143.894531 703.195312 147.933594 706.8125 152.050781 710.347656 C 156.167969 713.878906 160.359375 717.320312 164.621094 720.671875 C 168.886719 724.023438 173.222656 727.28125 177.625 730.449219 C 182.03125 733.613281 186.5 736.683594 191.035156 739.660156 C 195.574219 742.632812 200.171875 745.511719 204.828125 748.289062 C 209.488281 751.066406 214.203125 753.742188 218.980469 756.316406 C 223.753906 758.894531 228.578125 761.367188 233.460938 763.734375 C 238.339844 766.101562 243.269531 768.367188 248.246094 770.523438 C 253.222656 772.679688 258.242188 774.730469 263.308594 776.671875 C 268.371094 778.617188 273.476562 780.449219 278.621094 782.171875 C 297.574219 785.203125 303.632812 773.460938 303.632812 763.25 L 303.632812 699.238281 C 198.726562 722.023438 176.394531 648.523438 176.394531 648.523438 C 159.023438 604.59375 134.359375 592.851562 134.359375 592.851562 C 99.878906 569.371094 137.039062 570.148438 137.039062 570.148438 C 174.894531 572.828125 194.972656 609.148438 194.972656 609.148438 C 227.921875 666.699219 283.578125 649.652344 305.160156 640.5625 C 308.566406 615.957031 318.566406 599.285156 329.023438 589.824219 C 244.8125 580.359375 156.691406 547.792969 156.691406 403.558594 C 156.691406 361.527344 171.085938 327.835938 195.699219 300.949219 C 191.917969 291.488281 178.648438 252.113281 199.476562 200.996094 C 199.476562 200.996094 231.300781 190.757812 303.632812 239.621094 C 319.066406 235.464844 334.707031 232.339844 350.554688 230.246094 C 366.398438 228.152344 382.3125 227.101562 398.296875 227.101562 C 414.28125 227.101562 430.195312 228.152344 446.042969 230.246094 C 461.886719 232.339844 477.527344 235.464844 492.960938 239.621094 C 565.347656 190.757812 597.117188 200.996094 597.117188 200.996094 C 617.921875 252.113281 604.675781 291.488281 600.898438 300.949219 C 625.507812 327.753906 639.90625 361.527344 639.90625 403.558594 C 639.90625 548.167969 551.273438 579.984375 466.847656 589.449219 C 480.46875 601.1875 492.960938 624.292969 492.960938 659.488281 L 492.960938 763.25 C 492.960938 773.460938 499.019531 785.578125 518.351562 782.171875 C 523.839844 780.332031 529.285156 778.371094 534.683594 776.28125 C 540.085938 774.191406 545.433594 771.980469 550.730469 769.648438 C 556.03125 767.3125 561.269531 764.859375 566.457031 762.285156 C 571.644531 759.710938 576.765625 757.023438 581.828125 754.214844 C 586.890625 751.40625 591.886719 748.480469 596.816406 745.445312 C 601.746094 742.40625 606.601562 739.257812 611.386719 736 C 616.167969 732.738281 620.875 729.371094 625.507812 725.894531 C 630.136719 722.417969 634.683594 718.839844 639.148438 715.15625 C 643.617188 711.472656 647.996094 707.6875 652.285156 703.804688 C 656.578125 699.917969 660.78125 695.9375 664.890625 691.863281 C 669 687.785156 673.015625 683.617188 676.933594 679.355469 C 680.851562 675.09375 684.671875 670.746094 688.390625 666.308594 C 692.109375 661.875 695.726562 657.355469 699.238281 652.753906 C 702.753906 648.152344 706.15625 643.472656 709.457031 638.714844 C 712.753906 633.957031 715.941406 629.128906 719.019531 624.222656 C 722.09375 619.320312 725.058594 614.351562 727.90625 609.3125 C 730.753906 604.269531 733.488281 599.167969 736.101562 594.003906 C 738.71875 588.839844 741.210938 583.621094 743.589844 578.339844 C 745.964844 573.0625 748.21875 567.730469 750.347656 562.351562 C 752.480469 556.96875 754.488281 551.539062 756.371094 546.066406 C 758.253906 540.59375 760.011719 535.078125 761.640625 529.523438 C 763.269531 523.96875 764.773438 518.378906 766.144531 512.757812 C 767.519531 507.132812 768.765625 501.484375 769.878906 495.800781 C 770.992188 490.121094 771.976562 484.417969 772.832031 478.695312 C 773.683594 472.96875 774.40625 467.226562 774.996094 461.46875 C 775.585938 455.710938 776.046875 449.941406 776.371094 444.164062 C 776.699219 438.382812 776.890625 432.597656 776.953125 426.8125 C 777.011719 421.023438 776.941406 415.234375 776.738281 409.453125 C 776.535156 403.667969 776.195312 397.890625 775.726562 392.121094 C 775.257812 386.351562 774.65625 380.59375 773.925781 374.851562 C 773.191406 369.109375 772.328125 363.386719 771.332031 357.6875 C 770.339844 351.984375 769.214844 346.308594 767.957031 340.65625 C 766.703125 335.003906 765.320312 329.386719 763.804688 323.800781 C 762.292969 318.210938 760.652344 312.660156 758.886719 307.148438 C 757.121094 301.636719 755.226562 296.167969 753.210938 290.742188 C 751.191406 285.316406 749.050781 279.941406 746.785156 274.613281 C 744.523438 269.285156 742.136719 264.011719 739.632812 258.792969 C 737.125 253.574219 734.503906 248.417969 731.761719 243.320312 C 729.019531 238.222656 726.160156 233.1875 723.1875 228.222656 C 720.214844 223.253906 717.128906 218.359375 713.933594 213.53125 C 710.734375 208.707031 707.429688 203.957031 704.015625 199.28125 C 700.601562 194.609375 697.082031 190.015625 693.453125 185.5 C 689.828125 180.988281 686.101562 176.558594 682.273438 172.21875 C 678.445312 167.875 674.519531 163.621094 670.496094 159.460938 C 666.472656 155.296875 662.359375 151.230469 658.148438 147.253906 C 653.9375 143.28125 649.640625 139.40625 645.253906 135.628906 C 640.867188 131.851562 636.394531 128.175781 631.839844 124.605469 C 627.28125 121.03125 622.648438 117.566406 617.933594 114.207031 C 613.21875 110.847656 608.429688 107.597656 603.566406 104.457031 C 598.703125 101.316406 593.769531 98.289062 588.769531 95.375 C 583.765625 92.460938 578.699219 89.660156 573.570312 86.980469 C 568.4375 84.296875 563.25 81.734375 558 79.289062 C 552.753906 76.84375 547.453125 74.519531 542.097656 72.320312 C 536.742188 70.117188 531.339844 68.039062 525.890625 66.085938 C 520.441406 64.128906 514.949219 62.300781 509.417969 60.597656 C 503.882812 58.894531 498.3125 57.320312 492.707031 55.875 C 487.101562 54.425781 481.46875 53.105469 475.800781 51.917969 C 470.136719 50.726562 464.445312 49.667969 458.730469 48.742188 C 453.015625 47.8125 447.28125 47.015625 441.53125 46.347656 C 435.78125 45.683594 430.015625 45.148438 424.242188 44.746094 C 418.464844 44.34375 412.683594 44.074219 406.894531 43.9375 C 401.109375 43.800781 395.320312 43.796875 389.53125 43.921875 C 383.742188 44.050781 377.960938 44.3125 372.183594 44.703125 C 366.410156 45.097656 360.644531 45.621094 354.894531 46.28125 Z M 354.894531 46.28125 " fill-opacity="1" fill-rule="nonzero"/></svg>