<svg xmlns="http://www.w3.org/2000/svg" xmlns:xlink="http://www.w3.org/1999/xlink" width="1080" zoomAndPan="magnify" viewBox="0 0 810 809.999993" height="1080" preserveAspectRatio="xMidYMid meet" version="1.0"><defs><clipPath id="46d2a33248"><path d="M 5 6.582031 L 800 6.582031 L 800 803 L 5 803 Z M 5 6.582031 " clip-rule="nonzero"/></clipPath></defs><g clip-path="url(#46d2a33248)"><path fill="#ffffff" d="M 783.273438 620.414062 C 763.585938 597.78125 670.484375 504.617188 661.910156 496.03125 C 657.605469 491.136719 637.578125 470.175781 609.417969 470.175781 C 596.792969 470.175781 584.785156 474.367188 573.707031 482.640625 C 553.148438 497.984375 520.671875 527.339844 502.417969 544.15625 C 480.101562 531.683594 430.917969 503.15625 399.148438 477.039062 C 352.570312 438.730469 310.964844 388.921875 272.511719 325.703125 L 261.757812 305.449219 C 281.722656 283.796875 310.074219 252.3125 324.976562 232.324219 C 352.609375 195.300781 328.640625 158.796875 311.53125 144.070312 C 302.660156 135.195312 209.796875 42.445312 187.226562 22.769531 C 174.726562 11.878906 159.417969 6.128906 142.964844 6.128906 C 129.546875 6.128906 119.828125 9.929688 118.015625 10.683594 L 109.671875 15.71875 C 62.074219 46.285156 8.132812 80.925781 5.023438 217.042969 C 4.898438 354.277344 113.054688 488.316406 203.023438 575.777344 C 297.359375 679.253906 440.875 802.589844 588.75 802.589844 L 589.402344 802.589844 C 725.117188 799.480469 759.757812 745.527344 790.308594 697.933594 L 793.785156 692.519531 L 795.332031 689.613281 C 801.160156 675.765625 805.1875 645.59375 783.273438 620.414062 Z M 760.902344 673.851562 L 758.539062 677.539062 C 729.382812 722.957031 704.207031 762.195312 588.960938 764.839844 L 588.75 783.722656 L 588.75 764.839844 C 447.585938 764.839844 303.980469 630.449219 230.152344 549.53125 C 144.613281 466.351562 42.6875 341.125 42.800781 217.496094 C 45.445312 101.859375 84.671875 76.671875 130.101562 47.503906 L 133.675781 45.1875 C 135.414062 44.683594 138.8125 43.878906 142.992188 43.878906 C 150.394531 43.878906 156.761719 46.285156 162.441406 51.230469 C 184.695312 70.605469 284.394531 170.289062 285.398438 171.296875 L 286.660156 172.441406 C 288.925781 174.332031 308.398438 191.449219 294.753906 209.726562 C 282.945312 225.550781 257.71875 254.453125 225.003906 289.574219 L 215.851562 299.40625 L 239.71875 344.347656 C 280.945312 412.207031 325.253906 465.152344 375.191406 506.179688 C 420.03125 543.0625 493.304688 582.261719 496.402344 583.910156 L 508.296875 590.265625 L 518.15625 581.066406 C 526.929688 572.882812 571.957031 531.078125 596.3125 512.886719 C 600.769531 509.550781 605.0625 507.929688 609.429688 507.929688 C 620.03125 507.929688 630.515625 517.417969 633.5625 520.96875 L 634.71875 522.230469 C 635.726562 523.234375 735.4375 622.957031 754.796875 645.203125 C 764.957031 656.910156 762.113281 669.898438 760.902344 673.851562 Z M 760.902344 673.851562 " fill-opacity="1" fill-rule="nonzero"/></g></svg>