<svg xmlns="http://www.w3.org/2000/svg" xmlns:xlink="http://www.w3.org/1999/xlink" width="1080" zoomAndPan="magnify" viewBox="0 0 810 809.999993" height="1080" preserveAspectRatio="xMidYMid meet" version="1.0"><defs><clipPath id="f2dec99254"><path d="M 14.113281 14.113281 L 795.613281 14.113281 L 795.613281 795.613281 L 14.113281 795.613281 Z M 14.113281 14.113281 " clip-rule="nonzero"/></clipPath><clipPath id="550deb7d78"><path d="M 405 14.113281 C 189.121094 14.113281 14.113281 189.121094 14.113281 405 C 14.113281 620.878906 189.121094 795.882812 405 795.882812 C 620.878906 795.882812 795.882812 620.878906 795.882812 405 C 795.882812 189.121094 620.878906 14.113281 405 14.113281 Z M 405 14.113281 " clip-rule="nonzero"/></clipPath><clipPath id="08757802fd"><path d="M 285 284.5 L 525 284.5 L 525 524 L 285 524 Z M 285 284.5 " clip-rule="nonzero"/></clipPath></defs><g clip-path="url(#f2dec99254)"><g clip-path="url(#550deb7d78)"><path stroke-linecap="butt" transform="matrix(0.75, 0, 0, 0.75, 14.115037, 14.115053)" fill="none" stroke-linejoin="miter" d="M 521.179977 -0.00236251 C 233.341421 -0.00236251 -0.00234051 233.341399 -0.00234051 521.179955 C -0.00234051 809.018512 233.341421 1042.357065 521.179977 1042.357065 C 809.018534 1042.357065 1042.357087 809.018512 1042.357087 521.179955 C 1042.357087 233.341399 809.018534 -0.00236251 521.179977 -0.00236251 Z M 521.179977 -0.00236251 " stroke="#ffffff" stroke-width="14" stroke-opacity="1" stroke-miterlimit="4"/></g></g><g clip-path="url(#08757802fd)"><path fill="#ffffff" d="M 404.707031 284.226562 C 404.054688 284.238281 403.402344 284.277344 402.757812 284.351562 C 402.109375 284.425781 401.464844 284.53125 400.828125 284.667969 C 400.191406 284.800781 399.5625 284.96875 398.941406 285.167969 C 398.320312 285.367188 397.710938 285.59375 397.109375 285.851562 C 396.511719 286.109375 395.925781 286.398438 395.355469 286.714844 C 394.785156 287.027344 394.234375 287.371094 393.695312 287.742188 C 393.160156 288.113281 392.640625 288.507812 392.144531 288.925781 C 391.644531 289.347656 391.167969 289.792969 390.714844 290.261719 C 390.261719 290.726562 389.828125 291.214844 389.421875 291.726562 C 389.015625 292.234375 388.636719 292.765625 388.28125 293.3125 C 387.925781 293.859375 387.601562 294.421875 387.300781 295 C 387 295.578125 386.730469 296.171875 386.492188 296.777344 C 386.25 297.382812 386.039062 298 385.859375 298.625 C 385.675781 299.253906 385.527344 299.886719 385.410156 300.527344 C 385.292969 301.167969 385.203125 301.8125 385.148438 302.464844 C 385.09375 303.113281 385.070312 303.765625 385.082031 304.417969 L 385.082031 384.085938 L 305.414062 384.085938 C 304.753906 384.074219 304.097656 384.097656 303.441406 384.15625 C 302.785156 384.210938 302.132812 384.296875 301.488281 384.417969 C 300.839844 384.539062 300.199219 384.691406 299.566406 384.875 C 298.9375 385.058594 298.3125 385.273438 297.703125 385.519531 C 297.09375 385.765625 296.496094 386.039062 295.910156 386.34375 C 295.328125 386.648438 294.761719 386.980469 294.210938 387.34375 C 293.660156 387.703125 293.128906 388.089844 292.617188 388.503906 C 292.105469 388.917969 291.613281 389.355469 291.144531 389.816406 C 290.675781 390.28125 290.230469 390.765625 289.8125 391.269531 C 289.390625 391.777344 288.996094 392.300781 288.628906 392.847656 C 288.257812 393.394531 287.917969 393.957031 287.605469 394.535156 C 287.292969 395.113281 287.007812 395.707031 286.753906 396.3125 C 286.5 396.921875 286.277344 397.539062 286.085938 398.167969 C 285.890625 398.796875 285.730469 399.4375 285.601562 400.082031 C 285.472656 400.726562 285.375 401.375 285.308594 402.03125 C 285.246094 402.6875 285.210938 403.34375 285.210938 404 C 285.210938 404.660156 285.246094 405.316406 285.308594 405.972656 C 285.375 406.625 285.472656 407.277344 285.601562 407.921875 C 285.730469 408.566406 285.890625 409.203125 286.085938 409.835938 C 286.277344 410.464844 286.5 411.082031 286.753906 411.6875 C 287.007812 412.296875 287.292969 412.890625 287.605469 413.46875 C 287.917969 414.046875 288.257812 414.609375 288.628906 415.15625 C 288.996094 415.699219 289.390625 416.226562 289.8125 416.734375 C 290.230469 417.238281 290.675781 417.722656 291.144531 418.1875 C 291.613281 418.648438 292.105469 419.085938 292.617188 419.5 C 293.128906 419.914062 293.660156 420.300781 294.210938 420.660156 C 294.761719 421.023438 295.328125 421.355469 295.910156 421.660156 C 296.496094 421.964844 297.09375 422.238281 297.703125 422.484375 C 298.3125 422.730469 298.9375 422.945312 299.566406 423.128906 C 300.199219 423.3125 300.839844 423.464844 301.488281 423.585938 C 302.132812 423.703125 302.785156 423.792969 303.441406 423.847656 C 304.097656 423.90625 304.753906 423.929688 305.414062 423.917969 L 385.082031 423.917969 L 385.082031 503.585938 C 385.070312 504.246094 385.09375 504.902344 385.148438 505.558594 C 385.207031 506.214844 385.292969 506.863281 385.414062 507.511719 C 385.535156 508.160156 385.6875 508.800781 385.871094 509.429688 C 386.054688 510.0625 386.269531 510.683594 386.515625 511.296875 C 386.761719 511.90625 387.035156 512.503906 387.339844 513.085938 C 387.644531 513.671875 387.976562 514.238281 388.339844 514.789062 C 388.699219 515.339844 389.085938 515.871094 389.5 516.382812 C 389.914062 516.894531 390.351562 517.382812 390.8125 517.851562 C 391.277344 518.320312 391.757812 518.765625 392.265625 519.1875 C 392.773438 519.609375 393.296875 520.003906 393.84375 520.371094 C 394.390625 520.738281 394.949219 521.082031 395.53125 521.394531 C 396.109375 521.707031 396.703125 521.988281 397.308594 522.242188 C 397.917969 522.496094 398.535156 522.722656 399.164062 522.914062 C 399.792969 523.105469 400.429688 523.269531 401.078125 523.398438 C 401.722656 523.527344 402.371094 523.625 403.027344 523.691406 C 403.683594 523.753906 404.339844 523.789062 404.996094 523.789062 C 405.65625 523.789062 406.3125 523.753906 406.96875 523.691406 C 407.621094 523.625 408.273438 523.527344 408.917969 523.398438 C 409.5625 523.269531 410.199219 523.105469 410.832031 522.914062 C 411.460938 522.722656 412.078125 522.496094 412.683594 522.242188 C 413.292969 521.988281 413.886719 521.707031 414.464844 521.394531 C 415.042969 521.082031 415.605469 520.738281 416.152344 520.371094 C 416.695312 520.003906 417.222656 519.609375 417.730469 519.1875 C 418.234375 518.765625 418.71875 518.320312 419.179688 517.851562 C 419.644531 517.382812 420.082031 516.894531 420.496094 516.382812 C 420.910156 515.871094 421.296875 515.339844 421.65625 514.789062 C 422.015625 514.238281 422.351562 513.671875 422.65625 513.085938 C 422.960938 512.503906 423.234375 511.90625 423.480469 511.296875 C 423.726562 510.683594 423.941406 510.0625 424.125 509.429688 C 424.308594 508.800781 424.460938 508.160156 424.582031 507.511719 C 424.699219 506.863281 424.789062 506.214844 424.84375 505.558594 C 424.902344 504.902344 424.921875 504.246094 424.914062 503.585938 L 424.914062 423.917969 L 504.582031 423.917969 C 505.242188 423.929688 505.898438 423.90625 506.554688 423.847656 C 507.210938 423.792969 507.859375 423.703125 508.507812 423.585938 C 509.15625 423.464844 509.796875 423.3125 510.425781 423.128906 C 511.058594 422.945312 511.679688 422.730469 512.292969 422.484375 C 512.902344 422.238281 513.5 421.964844 514.082031 421.660156 C 514.667969 421.355469 515.234375 421.023438 515.785156 420.660156 C 516.335938 420.300781 516.867188 419.914062 517.378906 419.5 C 517.890625 419.085938 518.378906 418.648438 518.847656 418.1875 C 519.316406 417.722656 519.761719 417.238281 520.183594 416.734375 C 520.605469 416.226562 521 415.699219 521.367188 415.15625 C 521.734375 414.609375 522.078125 414.046875 522.390625 413.46875 C 522.703125 412.890625 522.984375 412.296875 523.238281 411.6875 C 523.492188 411.082031 523.71875 410.464844 523.910156 409.835938 C 524.101562 409.203125 524.265625 408.566406 524.394531 407.921875 C 524.523438 407.277344 524.621094 406.625 524.683594 405.972656 C 524.75 405.316406 524.78125 404.660156 524.78125 404 C 524.78125 403.34375 524.75 402.6875 524.683594 402.03125 C 524.621094 401.375 524.523438 400.726562 524.394531 400.082031 C 524.265625 399.4375 524.101562 398.796875 523.910156 398.167969 C 523.71875 397.539062 523.492188 396.921875 523.238281 396.3125 C 522.984375 395.707031 522.703125 395.113281 522.390625 394.535156 C 522.078125 393.957031 521.734375 393.394531 521.367188 392.847656 C 521 392.300781 520.605469 391.777344 520.183594 391.269531 C 519.761719 390.765625 519.316406 390.28125 518.847656 389.816406 C 518.378906 389.355469 517.890625 388.917969 517.378906 388.503906 C 516.867188 388.089844 516.335938 387.703125 515.785156 387.34375 C 515.234375 386.980469 514.667969 386.648438 514.082031 386.34375 C 513.5 386.039062 512.902344 385.765625 512.292969 385.519531 C 511.679688 385.273438 511.058594 385.058594 510.425781 384.875 C 509.796875 384.691406 509.15625 384.539062 508.507812 384.417969 C 507.859375 384.296875 507.210938 384.210938 506.554688 384.15625 C 505.898438 384.097656 505.242188 384.074219 504.582031 384.085938 L 424.914062 384.085938 L 424.914062 304.417969 C 424.921875 303.753906 424.898438 303.089844 424.84375 302.429688 C 424.785156 301.765625 424.695312 301.109375 424.570312 300.457031 C 424.449219 299.804688 424.292969 299.160156 424.105469 298.523438 C 423.917969 297.882812 423.699219 297.257812 423.449219 296.644531 C 423.199219 296.027344 422.917969 295.425781 422.609375 294.839844 C 422.300781 294.25 421.960938 293.679688 421.59375 293.128906 C 421.226562 292.574219 420.832031 292.042969 420.410156 291.527344 C 419.992188 291.011719 419.546875 290.523438 419.074219 290.050781 C 418.605469 289.582031 418.113281 289.136719 417.597656 288.71875 C 417.085938 288.296875 416.550781 287.902344 415.996094 287.539062 C 415.441406 287.171875 414.871094 286.832031 414.285156 286.523438 C 413.699219 286.214844 413.097656 285.933594 412.480469 285.683594 C 411.863281 285.433594 411.238281 285.214844 410.601562 285.03125 C 409.964844 284.84375 409.320312 284.6875 408.667969 284.566406 C 408.011719 284.445312 407.355469 284.355469 406.695312 284.296875 C 406.03125 284.242188 405.371094 284.21875 404.707031 284.226562 Z M 404.707031 284.226562 " fill-opacity="1" fill-rule="nonzero"/></g></svg>