<svg xmlns="http://www.w3.org/2000/svg" xmlns:xlink="http://www.w3.org/1999/xlink" width="1080" zoomAndPan="magnify" viewBox="0 0 810 809.999993" height="1080" preserveAspectRatio="xMidYMid meet" version="1.0"><defs><g/></defs><g fill="#ffffff" fill-opacity="1"><g transform="translate(34.359444, 426.845)"><g><path d="M 56.8125 0 L 49.65625 0 L 42.671875 -16.546875 L 14.390625 -16.546875 L 7.40625 0 L 0.265625 0 L 24.484375 -57.0625 L 32.578125 -57.0625 Z M 40.171875 -22.5 L 28.53125 -50.34375 L 16.890625 -22.5 Z M 40.171875 -22.5 "/></g></g></g><g fill="#ffffff" fill-opacity="1"><g transform="translate(91.405731, 426.845)"><g><path d="M 12.0625 -43.09375 L 12.0625 -36.375 C 13.613281 -38.445312 15.507812 -40.203125 17.75 -41.640625 C 20 -43.078125 22.554688 -43.796875 25.421875 -43.796875 C 28.296875 -43.796875 30.769531 -43.390625 32.84375 -42.578125 C 34.914062 -41.773438 36.726562 -40.570312 38.28125 -38.96875 C 41.84375 -35.457031 43.625 -30.828125 43.625 -25.078125 L 43.625 0 L 37.15625 0 L 37.15625 -24.90625 C 37.15625 -28.875 36.035156 -32.035156 33.796875 -34.390625 C 31.554688 -36.742188 28.648438 -37.921875 25.078125 -37.921875 C 21.460938 -37.921875 18.390625 -36.71875 15.859375 -34.3125 C 13.328125 -31.84375 12.0625 -28.679688 12.0625 -24.828125 L 12.0625 0 L 5.609375 0 L 5.609375 -43.09375 Z M 12.0625 -43.09375 "/></g></g></g><g fill="#ffffff" fill-opacity="1"><g transform="translate(140.179421, 426.845)"><g/></g></g><g fill="#ffffff" fill-opacity="1"><g transform="translate(158.534176, 426.845)"><g><path d="M 47.5 -50.859375 L 27.578125 -50.859375 L 27.578125 0 L 21.125 0 L 21.125 -50.859375 L 1.203125 -50.859375 L 1.203125 -57.0625 L 47.5 -57.0625 Z M 47.5 -50.859375 "/></g></g></g><g fill="#ffffff" fill-opacity="1"><g transform="translate(207.221714, 426.845)"><g><path d="M 12.0625 -60.34375 L 12.0625 -36.375 C 13.613281 -38.445312 15.507812 -40.203125 17.75 -41.640625 C 20 -43.078125 22.554688 -43.796875 25.421875 -43.796875 C 28.296875 -43.796875 30.769531 -43.390625 32.84375 -42.578125 C 34.914062 -41.773438 36.726562 -40.570312 38.28125 -38.96875 C 41.84375 -35.457031 43.625 -30.828125 43.625 -25.078125 L 43.625 0 L 37.15625 0 L 37.15625 -24.90625 C 37.15625 -28.875 36.035156 -32.035156 33.796875 -34.390625 C 31.554688 -36.742188 28.648438 -37.921875 25.078125 -37.921875 C 21.460938 -37.921875 18.390625 -36.71875 15.859375 -34.3125 C 13.328125 -31.84375 12.0625 -28.679688 12.0625 -24.828125 L 12.0625 0 L 5.609375 0 L 5.609375 -60.34375 Z M 12.0625 -60.34375 "/></g></g></g><g fill="#ffffff" fill-opacity="1"><g transform="translate(255.995405, 426.845)"><g><path d="M 24.828125 -5.171875 C 30.628906 -5.171875 34.796875 -7.582031 37.328125 -12.40625 L 44.390625 -12.40625 C 42.898438 -8.5 40.53125 -5.335938 37.28125 -2.921875 C 34.03125 -0.515625 29.847656 0.6875 24.734375 0.6875 C 18.242188 0.6875 12.957031 -1.46875 8.875 -5.78125 C 4.914062 -9.96875 2.9375 -15.222656 2.9375 -21.546875 C 2.9375 -27.929688 4.832031 -33.191406 8.625 -37.328125 C 12.644531 -41.640625 17.875 -43.796875 24.3125 -43.796875 C 30.75 -43.796875 35.976562 -41.640625 40 -37.328125 C 43.789062 -33.191406 45.6875 -27.929688 45.6875 -21.546875 L 45.6875 -18.96875 L 9.5625 -18.96875 C 10.03125 -15 11.613281 -11.722656 14.3125 -9.140625 C 17.070312 -6.492188 20.578125 -5.171875 24.828125 -5.171875 Z M 24.3125 -37.921875 C 20.34375 -37.921875 17.007812 -36.6875 14.3125 -34.21875 C 11.78125 -31.863281 10.226562 -28.789062 9.65625 -25 L 38.96875 -25 C 38.394531 -28.789062 36.84375 -31.863281 34.3125 -34.21875 C 31.601562 -36.6875 28.269531 -37.921875 24.3125 -37.921875 Z M 24.3125 -37.921875 "/></g></g></g><g fill="#ffffff" fill-opacity="1"><g transform="translate(303.993568, 426.845)"><g/></g></g><g fill="#ffffff" fill-opacity="1"><g transform="translate(322.348323, 426.845)"><g><path d="M 56.8125 0 L 49.65625 0 L 42.671875 -16.546875 L 14.390625 -16.546875 L 7.40625 0 L 0.265625 0 L 24.484375 -57.0625 L 32.578125 -57.0625 Z M 40.171875 -22.5 L 28.53125 -50.34375 L 16.890625 -22.5 Z M 40.171875 -22.5 "/></g></g></g><g fill="#ffffff" fill-opacity="1"><g transform="translate(379.39461, 426.845)"><g><path d="M 25.515625 -5.171875 C 28.273438 -5.171875 30.71875 -5.945312 32.84375 -7.5 C 34.96875 -9.050781 36.519531 -11.0625 37.5 -13.53125 L 44.484375 -13.53125 C 43.160156 -9.28125 40.742188 -5.863281 37.234375 -3.28125 C 33.554688 -0.632812 29.191406 0.6875 24.140625 0.6875 C 17.816406 0.6875 12.671875 -1.46875 8.703125 -5.78125 C 4.859375 -9.96875 2.9375 -15.222656 2.9375 -21.546875 C 2.9375 -27.867188 4.859375 -33.128906 8.703125 -37.328125 C 12.671875 -41.640625 17.816406 -43.796875 24.140625 -43.796875 C 29.191406 -43.796875 33.554688 -42.472656 37.234375 -39.828125 C 40.742188 -37.242188 43.160156 -33.820312 44.484375 -29.5625 L 37.5 -29.5625 C 36.519531 -32.039062 34.96875 -34.050781 32.84375 -35.59375 C 30.71875 -37.144531 28.273438 -37.921875 25.515625 -37.921875 C 22.753906 -37.921875 20.410156 -37.488281 18.484375 -36.625 C 16.566406 -35.769531 14.945312 -34.597656 13.625 -33.109375 C 10.800781 -30.003906 9.390625 -26.148438 9.390625 -21.546875 C 9.390625 -16.953125 10.800781 -13.101562 13.625 -10 C 16.5 -6.78125 20.460938 -5.171875 25.515625 -5.171875 Z M 25.515625 -5.171875 "/></g></g></g><g fill="#ffffff" fill-opacity="1"><g transform="translate(426.272534, 426.845)"><g><path d="M 25.515625 -5.171875 C 28.273438 -5.171875 30.71875 -5.945312 32.84375 -7.5 C 34.96875 -9.050781 36.519531 -11.0625 37.5 -13.53125 L 44.484375 -13.53125 C 43.160156 -9.28125 40.742188 -5.863281 37.234375 -3.28125 C 33.554688 -0.632812 29.191406 0.6875 24.140625 0.6875 C 17.816406 0.6875 12.671875 -1.46875 8.703125 -5.78125 C 4.859375 -9.96875 2.9375 -15.222656 2.9375 -21.546875 C 2.9375 -27.867188 4.859375 -33.128906 8.703125 -37.328125 C 12.671875 -41.640625 17.816406 -43.796875 24.140625 -43.796875 C 29.191406 -43.796875 33.554688 -42.472656 37.234375 -39.828125 C 40.742188 -37.242188 43.160156 -33.820312 44.484375 -29.5625 L 37.5 -29.5625 C 36.519531 -32.039062 34.96875 -34.050781 32.84375 -35.59375 C 30.71875 -37.144531 28.273438 -37.921875 25.515625 -37.921875 C 22.753906 -37.921875 20.410156 -37.488281 18.484375 -36.625 C 16.566406 -35.769531 14.945312 -34.597656 13.625 -33.109375 C 10.800781 -30.003906 9.390625 -26.148438 9.390625 -21.546875 C 9.390625 -16.953125 10.800781 -13.101562 13.625 -10 C 16.5 -6.78125 20.460938 -5.171875 25.515625 -5.171875 Z M 25.515625 -5.171875 "/></g></g></g><g fill="#ffffff" fill-opacity="1"><g transform="translate(473.150458, 426.845)"><g><path d="M 24.3125 -43.796875 C 30.75 -43.796875 35.976562 -41.640625 40 -37.328125 C 43.789062 -33.191406 45.6875 -27.929688 45.6875 -21.546875 C 45.6875 -15.171875 43.789062 -9.914062 40 -5.78125 C 35.976562 -1.46875 30.75 0.6875 24.3125 0.6875 C 17.875 0.6875 12.644531 -1.46875 8.625 -5.78125 C 4.832031 -9.914062 2.9375 -15.171875 2.9375 -21.546875 C 2.9375 -27.929688 4.832031 -33.191406 8.625 -37.328125 C 12.644531 -41.640625 17.875 -43.796875 24.3125 -43.796875 Z M 24.3125 -5.171875 C 28.96875 -5.171875 32.644531 -6.78125 35.34375 -10 C 37.925781 -13.039062 39.21875 -16.890625 39.21875 -21.546875 C 39.21875 -26.203125 37.925781 -30.054688 35.34375 -33.109375 C 32.644531 -36.316406 28.96875 -37.921875 24.3125 -37.921875 C 19.65625 -37.921875 15.976562 -36.316406 13.28125 -33.109375 C 10.6875 -30.054688 9.390625 -26.203125 9.390625 -21.546875 C 9.390625 -16.890625 10.6875 -13.039062 13.28125 -10 C 15.976562 -6.78125 19.65625 -5.171875 24.3125 -5.171875 Z M 24.3125 -5.171875 "/></g></g></g><g fill="#ffffff" fill-opacity="1"><g transform="translate(521.751792, 426.845)"><g><path d="M 36.71875 0 L 36.71875 -6.71875 C 35.164062 -4.65625 33.269531 -2.90625 31.03125 -1.46875 C 28.789062 -0.03125 26.234375 0.6875 23.359375 0.6875 C 20.484375 0.6875 18.007812 0.285156 15.9375 -0.515625 C 13.875 -1.316406 12.066406 -2.523438 10.515625 -4.140625 C 6.953125 -7.640625 5.171875 -12.265625 5.171875 -18.015625 L 5.171875 -43.09375 L 11.640625 -43.09375 L 11.640625 -18.1875 C 11.640625 -14.21875 12.757812 -11.054688 15 -8.703125 C 17.238281 -6.347656 20.140625 -5.171875 23.703125 -5.171875 C 27.328125 -5.171875 30.398438 -6.378906 32.921875 -8.796875 C 35.453125 -11.265625 36.71875 -14.425781 36.71875 -18.28125 L 36.71875 -43.09375 L 43.1875 -43.09375 L 43.1875 0 Z M 36.71875 0 "/></g></g></g><g fill="#ffffff" fill-opacity="1"><g transform="translate(570.525482, 426.845)"><g><path d="M 12.0625 -43.09375 L 12.0625 -36.375 C 13.613281 -38.445312 15.507812 -40.203125 17.75 -41.640625 C 20 -43.078125 22.554688 -43.796875 25.421875 -43.796875 C 28.296875 -43.796875 30.769531 -43.390625 32.84375 -42.578125 C 34.914062 -41.773438 36.726562 -40.570312 38.28125 -38.96875 C 41.84375 -35.457031 43.625 -30.828125 43.625 -25.078125 L 43.625 0 L 37.15625 0 L 37.15625 -24.90625 C 37.15625 -28.875 36.035156 -32.035156 33.796875 -34.390625 C 31.554688 -36.742188 28.648438 -37.921875 25.078125 -37.921875 C 21.460938 -37.921875 18.390625 -36.71875 15.859375 -34.3125 C 13.328125 -31.84375 12.0625 -28.679688 12.0625 -24.828125 L 12.0625 0 L 5.609375 0 L 5.609375 -43.09375 Z M 12.0625 -43.09375 "/></g></g></g><g fill="#ffffff" fill-opacity="1"><g transform="translate(619.299173, 426.845)"><g><path d="M 10.265625 0 L 10.265625 -37.40625 L 1.46875 -37.40625 L 1.46875 -43.09375 L 10.265625 -43.09375 L 10.265625 -58.53125 L 16.71875 -58.53125 L 16.71875 -43.09375 L 26.640625 -43.09375 L 26.640625 -37.40625 L 16.71875 -37.40625 L 16.71875 0 Z M 10.265625 0 "/></g></g></g><g fill="#ffffff" fill-opacity="1"><g transform="translate(647.391425, 426.845)"><g><path d="M 39.21875 -6.890625 C 35.769531 -1.835938 30.628906 0.6875 23.796875 0.6875 C 17.585938 0.6875 12.53125 -1.46875 8.625 -5.78125 C 4.832031 -10.03125 2.9375 -15.285156 2.9375 -21.546875 C 2.9375 -27.816406 4.832031 -33.078125 8.625 -37.328125 C 12.53125 -41.640625 17.726562 -43.796875 24.21875 -43.796875 C 30.71875 -43.796875 35.71875 -41.238281 39.21875 -36.125 L 39.21875 -43.09375 L 45.6875 -43.09375 L 45.6875 0 L 39.21875 0 Z M 24.65625 -5.171875 C 29.3125 -5.171875 32.988281 -6.78125 35.6875 -10 C 38.269531 -13.039062 39.5625 -16.890625 39.5625 -21.546875 C 39.5625 -26.203125 38.269531 -30.054688 35.6875 -33.109375 C 32.988281 -36.316406 29.3125 -37.921875 24.65625 -37.921875 C 20.0625 -37.921875 16.328125 -36.316406 13.453125 -33.109375 C 10.742188 -30.054688 9.390625 -26.203125 9.390625 -21.546875 C 9.390625 -16.890625 10.742188 -13.039062 13.453125 -10 C 16.328125 -6.78125 20.0625 -5.171875 24.65625 -5.171875 Z M 24.65625 -5.171875 "/></g></g></g><g fill="#ffffff" fill-opacity="1"><g transform="translate(698.664105, 426.845)"><g><path d="M 12.0625 -43.09375 L 12.0625 -36.375 C 13.613281 -38.445312 15.507812 -40.203125 17.75 -41.640625 C 20 -43.078125 22.554688 -43.796875 25.421875 -43.796875 C 28.296875 -43.796875 30.769531 -43.390625 32.84375 -42.578125 C 34.914062 -41.773438 36.726562 -40.570312 38.28125 -38.96875 C 41.84375 -35.457031 43.625 -30.828125 43.625 -25.078125 L 43.625 0 L 37.15625 0 L 37.15625 -24.90625 C 37.15625 -28.875 36.035156 -32.035156 33.796875 -34.390625 C 31.554688 -36.742188 28.648438 -37.921875 25.078125 -37.921875 C 21.460938 -37.921875 18.390625 -36.71875 15.859375 -34.3125 C 13.328125 -31.84375 12.0625 -28.679688 12.0625 -24.828125 L 12.0625 0 L 5.609375 0 L 5.609375 -43.09375 Z M 12.0625 -43.09375 "/></g></g></g><g fill="#ffffff" fill-opacity="1"><g transform="translate(747.437795, 426.845)"><g><path d="M 10.265625 0 L 10.265625 -37.40625 L 1.46875 -37.40625 L 1.46875 -43.09375 L 10.265625 -43.09375 L 10.265625 -58.53125 L 16.71875 -58.53125 L 16.71875 -43.09375 L 26.640625 -43.09375 L 26.640625 -37.40625 L 16.71875 -37.40625 L 16.71875 0 Z M 10.265625 0 "/></g></g></g></svg>